<svg xmlns="http://www.w3.org/2000/svg" width="192" height="192" viewBox="0 0 50.8 50.8"><path style="opacity:1;fill:#1a73e8;fill-opacity:1;stroke:#b40000;stroke-width:0;stroke-linecap:butt;stroke-linejoin:miter;stroke-miterlimit:4;stroke-dasharray:none;stroke-dashoffset:0;stroke-opacity:1;paint-order:normal" d="m8.467 271.6 25.4-21.167h8.466v42.334H8.467Z" transform="translate(0 -246.2)"/><path style="opacity:1;fill:#d2e3fc;fill-opacity:1;stroke:#b40000;stroke-width:0;stroke-linecap:butt;stroke-linejoin:miter;stroke-miterlimit:4;stroke-dasharray:none;stroke-dashoffset:0;stroke-opacity:1;paint-order:normal" d="M8.467 271.6h33.867v21.167H8.467z" transform="translate(0 -246.2)"/><path style="opacity:1;fill:#e8f0fe;fill-opacity:1;stroke:#b40000;stroke-width:0;stroke-linecap:butt;stroke-linejoin:miter;stroke-miterlimit:4;stroke-dasharray:none;stroke-dashoffset:0;stroke-opacity:1;paint-order:normal" d="m16.933 271.6 25.4-21.167v42.334h-25.4z" transform="translate(0 -246.2)"/><path style="opacity:1;fill:#1a73e8;fill-opacity:1;stroke:#b40000;stroke-width:0;stroke-linecap:butt;stroke-linejoin:miter;stroke-miterlimit:4;stroke-dasharray:none;stroke-dashoffset:0;stroke-opacity:1;paint-order:normal" d="M20.108 271.6v3.175h-3.175v2.117h3.175v3.175h2.117v-3.175H25.4v-2.117h-3.175V271.6ZM10.848 256.783v2.382H8.467v1.587h2.38v2.381h1.588v-2.38h2.382v-1.588h-2.382v-2.382zM16.933 250.433v1.588h-1.587v1.058h1.587v1.588h1.059v-1.588h1.587v-1.058h-1.587v-1.588z" transform="translate(0 -246.2)"/></svg>