<svg xmlns="http://www.w3.org/2000/svg" width="192" height="192" viewBox="0 0 50.8 50.8"><g transform="translate(0 -246.2)"><path d="m17.521 294.993 24.812-5.432-9.054-41.354-24.812 5.432Z" style="opacity:1;fill:#d2e3fc;fill-opacity:1;stroke:#b40000;stroke-width:0;stroke-linecap:butt;stroke-linejoin:miter;stroke-miterlimit:4;stroke-dasharray:none;stroke-dashoffset:0;stroke-opacity:1;paint-order:normal"/><path style="opacity:1;fill:#e8effe;fill-opacity:1;stroke:#b40000;stroke-width:0;stroke-linecap:butt;stroke-linejoin:miter;stroke-miterlimit:4;stroke-dasharray:none;stroke-dashoffset:0;stroke-opacity:1;paint-order:normal" d="M12.7 292.767h25.4V258.9l-8.467-8.467H12.7Z"/><path style="opacity:1;fill:#1a73e8;fill-opacity:1;stroke:#b40000;stroke-width:0;stroke-linecap:butt;stroke-linejoin:miter;stroke-miterlimit:4;stroke-dasharray:none;stroke-dashoffset:0;stroke-opacity:1;paint-order:normal" d="M29.633 258.9H38.1l-8.467-8.467z"/><circle style="opacity:1;fill:#fff;fill-opacity:1;stroke:#b40000;stroke-width:0;stroke-linecap:butt;stroke-linejoin:miter;stroke-miterlimit:4;stroke-dasharray:none;stroke-dashoffset:0;stroke-opacity:1;paint-order:normal" cx="25.4" cy="286.417" r="2.117"/><path style="opacity:1;fill:#fff;fill-opacity:1;stroke:none;stroke-width:0;stroke-linecap:butt;stroke-linejoin:miter;stroke-miterlimit:4;stroke-dasharray:none;stroke-dashoffset:0;stroke-opacity:1;paint-order:normal" d="M18.068 265.25a8.467 8.467 0 0 1 11.565-3.099 8.467 8.467 0 0 1 3.1 11.566l-2.292-1.323a5.82 5.82 30 0 0-2.13-7.952 5.82 5.82 30 0 0-7.952 2.13z"/><path transform="rotate(29.833)" style="opacity:1;fill:#fff;fill-opacity:1;stroke:none;stroke-width:0;stroke-linecap:butt;stroke-linejoin:miter;stroke-miterlimit:4;stroke-dasharray:none;stroke-dashoffset:0;stroke-opacity:1;paint-order:normal" d="m161.916 221.152 2.646.008c-.102 5.168-3.553 5.883-1.001 10.334l-2.295 1.316c-3.08-5.372.24-7.05.65-11.658z"/></g></svg>